# xmcd
#
# Track frame offsets:
#	150
#	15917
#	29781
#	43671
#	60468
#	77612
#	93387
#	110129
#	123176
#	141303
#
# Disc length: 2105 seconds
#
# Revision: 0
# Processed by: cddbd v1.4PL0 Copyright (c) Steve Scherf et al.
# Submitted via: EasyCDDAExtractor 4.5.0.2
#
DISCID=8008370a
DTITLE=Holly Dunn
DYEAR=1900
DGENRE=Country
TTITLE0=Two Too Many
TTITLE1=Your Memory (Won't Let Go Of Me)
TTITLE2=Burnin' Wheel
TTITLE3=The Sweetest Love I Never Knew
TTITLE4=It'll Be All Right
TTITLE5=Daddy's Hands
TTITLE6=My Heart Holds On
TTITLE7=That's A Real Good Way To Get Yourself Loved
TTITLE8=Hideaway Heart
TTITLE9=Someone Carried You
EXTD=
EXTT0=
EXTT1=
EXTT2=
EXTT3=
EXTT4=
EXTT5=
EXTT6=
EXTT7=
EXTT8=
EXTT9=
PLAYORDER=
